<?xml version="1.0" encoding="UTF-8" standalone="no"?>
<!DOCTYPE svg PUBLIC "-//W3C//DTD SVG 1.1//EN"
 "http://www.w3.org/Graphics/SVG/1.1/DTD/svg11.dtd">
<!-- Generated by graphviz version 2.43.0 (0)
 -->
<!-- Title: FlowChart Pages: 1 -->
<svg width="192pt" height="608pt"
 viewBox="0.00 0.00 191.83 608.00" xmlns="http://www.w3.org/2000/svg" xmlns:xlink="http://www.w3.org/1999/xlink">
<g id="graph0" class="graph" transform="scale(1 1) rotate(0) translate(4 604)">
<title>FlowChart</title>
<polygon fill="white" stroke="transparent" points="-4,4 -4,-604 187.83,-604 187.83,4 -4,4"/>
<!-- start -->
<g id="node1" class="node">
<title>start</title>
<ellipse fill="lightgreen" stroke="black" cx="91.92" cy="-582" rx="29.5" ry="18"/>
<text text-anchor="middle" x="91.92" y="-578.3" font-family="Arial" font-size="14.00">Start</text>
</g>
<!-- step1 -->
<g id="node2" class="node">
<title>step1</title>
<path fill="none" stroke="black" d="M138.92,-527C138.92,-527 44.92,-527 44.92,-527 38.92,-527 32.92,-521 32.92,-515 32.92,-515 32.92,-501 32.92,-501 32.92,-495 38.92,-489 44.92,-489 44.92,-489 138.92,-489 138.92,-489 144.92,-489 150.92,-495 150.92,-501 150.92,-501 150.92,-515 150.92,-515 150.92,-521 144.92,-527 138.92,-527"/>
<text text-anchor="middle" x="91.92" y="-511.8" font-family="Arial" font-size="14.00">Step 1:</text>
<text text-anchor="middle" x="91.92" y="-496.8" font-family="Arial" font-size="14.00">Initialize Process</text>
</g>
<!-- start&#45;&gt;step1 -->
<g id="edge1" class="edge">
<title>start&#45;&gt;step1</title>
<path fill="none" stroke="black" d="M91.92,-563.94C91.92,-555.99 91.92,-546.31 91.92,-537.31"/>
<polygon fill="black" stroke="black" points="95.42,-537.2 91.92,-527.2 88.42,-537.2 95.42,-537.2"/>
</g>
<!-- step2 -->
<g id="node3" class="node">
<title>step2</title>
<path fill="none" stroke="black" d="M124.92,-452C124.92,-452 58.92,-452 58.92,-452 52.92,-452 46.92,-446 46.92,-440 46.92,-440 46.92,-426 46.92,-426 46.92,-420 52.92,-414 58.92,-414 58.92,-414 124.92,-414 124.92,-414 130.92,-414 136.92,-420 136.92,-426 136.92,-426 136.92,-440 136.92,-440 136.92,-446 130.92,-452 124.92,-452"/>
<text text-anchor="middle" x="91.92" y="-436.8" font-family="Arial" font-size="14.00">Step 2:</text>
<text text-anchor="middle" x="91.92" y="-421.8" font-family="Arial" font-size="14.00">Collect Data</text>
</g>
<!-- step1&#45;&gt;step2 -->
<g id="edge2" class="edge">
<title>step1&#45;&gt;step2</title>
<path fill="none" stroke="black" d="M91.92,-488.96C91.92,-480.88 91.92,-471.18 91.92,-462.18"/>
<polygon fill="black" stroke="black" points="95.42,-462.09 91.92,-452.09 88.42,-462.09 95.42,-462.09"/>
</g>
<!-- decision -->
<g id="node4" class="node">
<title>decision</title>
<polygon fill="lightyellow" stroke="black" points="91.92,-348 0.08,-330 91.92,-312 183.75,-330 91.92,-348"/>
<text text-anchor="middle" x="91.92" y="-326.3" font-family="Arial" font-size="14.00">Is Data Valid?</text>
</g>
<!-- step2&#45;&gt;decision -->
<g id="edge3" class="edge">
<title>step2&#45;&gt;decision</title>
<path fill="none" stroke="black" d="M90.7,-413.69C90.38,-408.03 90.08,-401.76 89.92,-396 89.55,-382.67 89.54,-379.33 89.92,-366 89.99,-363.44 90.09,-360.79 90.21,-358.13"/>
<polygon fill="black" stroke="black" points="93.71,-358.25 90.74,-348.08 86.72,-357.88 93.71,-358.25"/>
</g>
<!-- decision&#45;&gt;step2 -->
<g id="edge5" class="edge">
<title>decision&#45;&gt;step2</title>
<path fill="none" stroke="red" stroke-dasharray="5,2" d="M91.92,-348.23C91.92,-363.45 91.92,-385.95 91.92,-403.8"/>
<polygon fill="red" stroke="red" points="88.42,-403.94 91.92,-413.94 95.42,-403.94 88.42,-403.94"/>
<text text-anchor="middle" x="127.92" y="-384.8" font-family="Arial" font-size="14.00">No</text>
<text text-anchor="middle" x="127.92" y="-369.8" font-family="Arial" font-size="14.00">(Loop back)</text>
</g>
<!-- step3 -->
<g id="node5" class="node">
<title>step3</title>
<path fill="none" stroke="black" d="M128.92,-261C128.92,-261 54.92,-261 54.92,-261 48.92,-261 42.92,-255 42.92,-249 42.92,-249 42.92,-235 42.92,-235 42.92,-229 48.92,-223 54.92,-223 54.92,-223 128.92,-223 128.92,-223 134.92,-223 140.92,-229 140.92,-235 140.92,-235 140.92,-249 140.92,-249 140.92,-255 134.92,-261 128.92,-261"/>
<text text-anchor="middle" x="91.92" y="-245.8" font-family="Arial" font-size="14.00">Step 3:</text>
<text text-anchor="middle" x="91.92" y="-230.8" font-family="Arial" font-size="14.00">Process Data</text>
</g>
<!-- decision&#45;&gt;step3 -->
<g id="edge4" class="edge">
<title>decision&#45;&gt;step3</title>
<path fill="none" stroke="black" d="M91.92,-311.6C91.92,-300.06 91.92,-284.65 91.92,-271.36"/>
<polygon fill="black" stroke="black" points="95.42,-271.27 91.92,-261.27 88.42,-271.27 95.42,-271.27"/>
<text text-anchor="middle" x="103.42" y="-282.8" font-family="Arial" font-size="14.00">Yes</text>
</g>
<!-- step4 -->
<g id="node6" class="node">
<title>step4</title>
<path fill="none" stroke="black" d="M139.42,-186C139.42,-186 44.42,-186 44.42,-186 38.42,-186 32.42,-180 32.42,-174 32.42,-174 32.42,-160 32.42,-160 32.42,-154 38.42,-148 44.42,-148 44.42,-148 139.42,-148 139.42,-148 145.42,-148 151.42,-154 151.42,-160 151.42,-160 151.42,-174 151.42,-174 151.42,-180 145.42,-186 139.42,-186"/>
<text text-anchor="middle" x="91.92" y="-170.8" font-family="Arial" font-size="14.00">Step 4:</text>
<text text-anchor="middle" x="91.92" y="-155.8" font-family="Arial" font-size="14.00">Generate Output</text>
</g>
<!-- step3&#45;&gt;step4 -->
<g id="edge6" class="edge">
<title>step3&#45;&gt;step4</title>
<path fill="none" stroke="black" d="M91.92,-222.96C91.92,-214.88 91.92,-205.18 91.92,-196.18"/>
<polygon fill="black" stroke="black" points="95.42,-196.09 91.92,-186.09 88.42,-196.09 95.42,-196.09"/>
</g>
<!-- step5 -->
<g id="node7" class="node">
<title>step5</title>
<path fill="none" stroke="black" d="M127.92,-111C127.92,-111 55.92,-111 55.92,-111 49.92,-111 43.92,-105 43.92,-99 43.92,-99 43.92,-85 43.92,-85 43.92,-79 49.92,-73 55.92,-73 55.92,-73 127.92,-73 127.92,-73 133.92,-73 139.92,-79 139.92,-85 139.92,-85 139.92,-99 139.92,-99 139.92,-105 133.92,-111 127.92,-111"/>
<text text-anchor="middle" x="91.92" y="-95.8" font-family="Arial" font-size="14.00">Step 5:</text>
<text text-anchor="middle" x="91.92" y="-80.8" font-family="Arial" font-size="14.00">Save Results</text>
</g>
<!-- step4&#45;&gt;step5 -->
<g id="edge7" class="edge">
<title>step4&#45;&gt;step5</title>
<path fill="none" stroke="black" d="M91.92,-147.96C91.92,-139.88 91.92,-130.18 91.92,-121.18"/>
<polygon fill="black" stroke="black" points="95.42,-121.09 91.92,-111.09 88.42,-121.09 95.42,-121.09"/>
</g>
<!-- end_node -->
<g id="node8" class="node">
<title>end_node</title>
<ellipse fill="lightcoral" stroke="black" cx="91.92" cy="-18" rx="27" ry="18"/>
<text text-anchor="middle" x="91.92" y="-14.3" font-family="Arial" font-size="14.00">End</text>
</g>
<!-- step5&#45;&gt;end_node -->
<g id="edge8" class="edge">
<title>step5&#45;&gt;end_node</title>
<path fill="none" stroke="black" d="M91.92,-72.83C91.92,-64.89 91.92,-55.41 91.92,-46.63"/>
<polygon fill="black" stroke="black" points="95.42,-46.42 91.92,-36.42 88.42,-46.42 95.42,-46.42"/>
</g>
</g>
</svg>
